<?xml version="1.0" standalone="no"?>
<!DOCTYPE svg PUBLIC "-//W3C//DTD SVG 20010904//EN"
 "http://www.w3.org/TR/2001/REC-SVG-20010904/DTD/svg10.dtd">
<svg version="1.0" xmlns="http://www.w3.org/2000/svg"
 width="512.000000pt" height="512.000000pt" viewBox="0 0 512.000000 512.000000"
 preserveAspectRatio="xMidYMid meet">
<metadata>
Created by potrace 1.16, written by Peter Selinger 2001-2019
</metadata>
<g transform="translate(0.000000,512.000000) scale(0.100000,-0.100000)"
fill="#000000" stroke="none">
<path d="M86 5096 c-74 -45 -107 -147 -76 -233 6 -15 273 -290 598 -615 l587
-588 -76 0 c-163 0 -285 -72 -356 -210 l-28 -55 0 -835 0 -835 27 -55 c35 -71
107 -143 178 -178 l55 -27 475 -5 475 -5 890 -711 c490 -391 905 -719 924
-729 52 -26 148 -18 195 18 71 55 70 52 76 440 l5 347 395 -396 c217 -217 407
-402 422 -410 44 -23 134 -18 182 10 76 45 109 154 72 239 -18 42 -4811 4832
-4849 4847 -50 18 -128 12 -171 -14z"/>
<path d="M3756 5103 c-20 -11 -1469 -1157 -1656 -1310 -5 -5 1912 -1923 1923
-1923 4 0 6 704 5 1564 l-3 1564 -30 43 c-16 23 -46 50 -65 60 -43 24 -133 24
-174 2z"/>
</g>
</svg>
