<?xml version="1.0" standalone="no"?>
<!DOCTYPE svg PUBLIC "-//W3C//DTD SVG 20010904//EN"
 "http://www.w3.org/TR/2001/REC-SVG-20010904/DTD/svg10.dtd">
<svg version="1.0" xmlns="http://www.w3.org/2000/svg"
 width="512.000000pt" height="512.000000pt" viewBox="0 0 512.000000 512.000000"
 preserveAspectRatio="xMidYMid meet">
<metadata>
Created by potrace 1.16, written by Peter Selinger 2001-2019
</metadata>
<g transform="translate(0.000000,512.000000) scale(0.100000,-0.100000)"
fill="#000000" stroke="none">
<path d="M2825 4938 c-11 -6 -396 -312 -856 -679 l-835 -668 -440 -3 -439 -3
-57 -27 c-69 -32 -136 -97 -169 -163 l-24 -50 0 -785 0 -785 24 -50 c33 -66
100 -131 169 -163 l57 -27 440 -3 439 -3 820 -657 c451 -361 836 -667 855
-679 70 -44 185 -24 231 41 39 54 38 9 38 2326 0 1694 -2 2252 -11 2275 -30
77 -85 115 -167 115 -30 0 -64 -6 -75 -12z"/>
<path d="M4215 4281 c-75 -45 -110 -130 -85 -206 7 -20 53 -82 106 -141 358
-402 533 -852 534 -1371 0 -523 -177 -978 -540 -1383 -96 -107 -116 -148 -106
-214 19 -115 145 -181 252 -130 74 35 292 301 414 504 164 272 271 584 315
913 20 155 20 459 0 614 -41 306 -144 620 -285 864 -135 232 -360 513 -444
553 -46 22 -123 21 -161 -3z"/>
<path d="M3745 3806 c-62 -28 -105 -94 -105 -162 0 -54 22 -92 100 -179 166
-183 266 -379 322 -626 33 -150 33 -408 0 -558 -55 -246 -155 -441 -322 -626
-39 -44 -78 -94 -86 -112 -50 -113 38 -243 163 -243 63 0 117 35 198 128 201
230 336 504 397 804 19 97 23 144 23 328 0 184 -4 231 -23 328 -61 302 -196
575 -400 808 -57 64 -92 96 -121 108 -50 19 -105 20 -146 2z"/>
</g>
</svg>
