<svg xmlns="http://www.w3.org/2000/svg" viewBox="0 0 582 930">
    <path fill="#DA70D6" d="M62.857 886.65l288.57-777.14 294.29 774.29c-194.29 100.44-388.57 122.92-582.86 2.857z" transform="translate(-62.857 -38.169)"></path>
    <path fill="#fffcc2" d="M425.913 502.978c-2.148 2.148-51.69-26.952-54.69-26.477-3 .475-41.125 43.46-43.832 42.081-2.707-1.38 9.66-57.488 8.28-60.195-1.379-2.707-54.041-25.682-53.565-28.683.475-3 57.66-8.578 59.808-10.726 2.148-2.148 7.725-59.333 10.726-59.808 3-.475 25.976 52.187 28.683 53.566 2.707 1.38 58.816-10.988 60.195-8.28 1.379 2.706-41.606 40.83-42.081 43.831-.476 3.001 28.625 52.542 26.477 54.69z" transform="translate(-62.857 -38.169)"></path>
    <path fill="#c2f0ff" d="M229.61 797.537c-1.629.766-23.406-25.406-25.174-25.743-1.769-.338-31.655 15.972-32.888 14.66-1.232-1.313 16.93-30.112 16.704-31.898-.225-1.786-24.973-25.17-24.105-26.748.867-1.578 33.87 6.796 35.498 6.03 1.63-.767 16.222-31.53 17.99-31.192 1.768.338 4.003 34.312 5.236 35.625 1.232 1.312 34.998 5.684 35.223 7.47.225 1.786-31.396 14.41-32.263 15.988-.868 1.577 5.409 35.042 3.78 35.808z" transform="translate(-62.857 -38.169)"></path>
    <path fill="#fffcc2" d="M353.704 840.132c-2.789-.429-8.209-53.516-10.212-55.502-2.005-1.986-55.138-6.926-55.593-9.71-.454-2.786 48.36-24.345 49.63-26.865 1.27-2.52-10.453-54.58-7.944-55.872 2.509-1.292 38.097 38.47 40.886 38.899 2.79.429 48.679-26.807 50.683-24.82 2.004 1.986-24.815 48.12-24.36 50.905.454 2.785 40.537 38.012 39.267 40.532-1.27 2.52-53.434-8.73-55.942-7.438-2.508 1.293-23.625 50.3-26.414 49.871z" transform="translate(-62.857 -38.169)"></path>
    <path fill="#c7ffc2" d="M275.811 633.136c-.664.973-21.636-6.562-22.745-6.165-1.11.396-12.555 19.517-13.686 19.186-1.13-.332-.445-22.605-1.165-23.538-.72-.933-22.442-5.91-22.476-7.087-.034-1.178 21.361-7.409 22.026-8.382.665-.973-1.315-23.17-.205-23.566 1.11-.396 13.647 18.026 14.778 18.358 1.13.331 21.628-8.41 22.348-7.478.72.933-12.927 18.55-12.892 19.728.034 1.178 14.682 17.971 14.018 18.944z" transform="translate(-62.857 -38.169)"></path>
    <path fill="#c2fdff" d="M529.195 639.513c.118 1.797-32.207 12.49-33.168 14.012-.962 1.523 3.285 35.305 1.612 35.971-1.672.667-21.831-26.771-23.576-27.215-1.745-.443-32.561 14.035-33.712 12.65-1.15-1.385 18.715-29.036 18.598-30.833-.117-1.796-23.41-26.63-22.448-28.153.96-1.522 33.398 8.827 35.07 8.16 1.672-.667 18.093-30.493 19.838-30.05 1.745.444 1.926 34.492 3.077 35.876 1.151 1.385 34.592 7.785 34.71 9.582z" transform="translate(-62.857 -38.169)"></path>
    <path fill="#c2f0ff" d="M549.083 861.448c-.233 1.785-34.016 6.024-35.253 7.332-1.237 1.307-3.606 35.273-5.375 35.604-1.77.33-16.241-30.49-17.867-31.262-1.626-.773-34.662 7.471-35.523 5.89-.86-1.581 23.978-24.868 24.21-26.653.233-1.786-17.815-30.656-16.578-31.964 1.238-1.308 31.06 15.12 32.83 14.79 1.77-.331 23.65-26.418 25.276-25.645 1.626.773-4.782 34.212-3.92 35.793.861 1.581 32.432 14.33 32.2 16.114z" transform="translate(-62.857 -38.169)"></path>
    <path fill="#c7ffc2" d="M242.13 916.224c-1.178-.013-6.549-21.64-7.494-22.343-.946-.703-23.203.388-23.555-.737-.352-1.124 18.557-12.915 18.933-14.032.376-1.117-7.54-21.948-6.578-22.63.96-.682 18.018 13.658 19.196 13.67 1.178.013 18.544-13.952 19.49-13.249.945.703-7.422 21.357-7.07 22.481.352 1.125 19 13.325 18.624 14.442-.377 1.116-22.605-.459-23.566.223-.96.683-6.801 22.188-7.98 22.175zM496.87 775.588c-1.062-.511 3.238-22.377 2.68-23.414-.559-1.038-21.181-9.482-21.024-10.65.158-1.167 22.282-3.834 23.096-4.686.814-.852 2.473-23.075 3.632-23.285 1.16-.211 10.533 20.006 11.594 20.517 1.062.511 22.71-4.779 23.268-3.741.559 1.037-15.772 16.199-15.93 17.367-.158 1.167 11.563 20.12 10.749 20.972-.814.852-20.28-9.995-21.44-9.784-1.16.211-15.563 17.215-16.625 16.704zM359.49 607.898c-1.062-.511 3.238-22.377 2.68-23.414-.559-1.038-21.181-9.482-21.024-10.65.158-1.167 22.282-3.834 23.096-4.686.814-.852 2.473-23.075 3.632-23.285 1.16-.211 10.533 20.006 11.594 20.517 1.062.511 22.71-4.779 23.268-3.741.559 1.037-15.772 16.199-15.93 17.367-.158 1.167 11.563 20.12 10.749 20.972-.814.852-20.28-9.995-21.44-9.784-1.16.211-15.563 17.215-16.625 16.704z" transform="translate(-62.857 -38.169)"></path>
    <path fill="#93ffac" d="M472.75 165.444c0 70.294-56.986 127.28-127.28 127.28s-127.28-56.985-127.28-127.28c0-70.294 56.984-127.28 127.28-127.28s127.28 56.985 127.28 127.28z" transform="translate(-62.857 -38.169)"></path>
</svg>